<svg width="721" height="459" viewBox="0 0 721 459" fill="none" xmlns="http://www.w3.org/2000/svg">
<g filter="url(#filter0_f_812_12671)">
<path d="M23 126C23 126 24.0035 138.171 24.1919 147.614C29.628 142.492 36.8533 136.617 36.8533 136.617C36.8533 136.617 30.9911 143.826 25.8727 149.26C34.3226 149.466 45 150.444 45 150.444C45 150.444 34.3015 151.424 25.8478 151.629C30.966 157.063 36.8279 164.272 36.8279 164.272C36.8279 164.272 29.6247 158.415 24.1915 153.298C24.0019 162.738 23 174.889 23 174.889C23 174.889 21.9998 162.758 21.809 153.322C16.3787 158.433 9.19757 164.272 9.19757 164.272C9.19757 164.272 15.0591 157.064 20.1772 151.63C11.7195 151.426 1 150.444 1 150.444C1 150.444 11.6984 149.464 20.1522 149.259C15.034 143.825 9.17214 136.616 9.17214 136.616C9.17214 136.616 16.3753 142.474 21.8085 147.59C21.9981 138.151 23 126 23 126Z" fill="url(#paint0_radial_812_12671)"/>
</g>
<path d="M23 126C23 126 24.0035 138.171 24.1919 147.614C29.628 142.492 36.8533 136.617 36.8533 136.617C36.8533 136.617 30.9911 143.826 25.8727 149.26C34.3226 149.466 45 150.444 45 150.444C45 150.444 34.3015 151.424 25.8478 151.629C30.966 157.063 36.8279 164.272 36.8279 164.272C36.8279 164.272 29.6247 158.415 24.1915 153.298C24.0019 162.738 23 174.889 23 174.889C23 174.889 21.9998 162.758 21.809 153.322C16.3787 158.433 9.19757 164.272 9.19757 164.272C9.19757 164.272 15.0591 157.064 20.1772 151.63C11.7195 151.426 1 150.444 1 150.444C1 150.444 11.6984 149.464 20.1522 149.259C15.034 143.825 9.17214 136.616 9.17214 136.616C9.17214 136.616 16.3753 142.474 21.8085 147.59C21.9981 138.151 23 126 23 126Z" fill="url(#paint1_radial_812_12671)"/>
<g filter="url(#filter1_f_812_12671)">
<path d="M698 409C698 409 699.004 421.171 699.192 430.614C704.628 425.492 711.853 419.616 711.853 419.616C711.853 419.616 705.991 426.826 700.873 432.26C709.323 432.466 720 433.444 720 433.444C720 433.444 709.302 434.424 700.848 434.629C705.966 440.063 711.828 447.272 711.828 447.272C711.828 447.272 704.625 441.415 699.191 436.298C699.002 445.738 698 457.889 698 457.889C698 457.889 697 445.758 696.809 436.322C691.379 441.433 684.198 447.272 684.198 447.272C684.198 447.272 690.059 440.064 695.177 434.63C686.72 434.426 676 433.444 676 433.444C676 433.444 686.698 432.464 695.152 432.259C690.034 426.825 684.172 419.616 684.172 419.616C684.172 419.616 691.375 425.474 696.809 430.59C696.998 421.151 698 409 698 409Z" fill="url(#paint2_radial_812_12671)"/>
</g>
<path d="M698 409C698 409 699.004 421.171 699.192 430.614C704.628 425.492 711.853 419.616 711.853 419.616C711.853 419.616 705.991 426.826 700.873 432.26C709.323 432.466 720 433.444 720 433.444C720 433.444 709.302 434.424 700.848 434.629C705.966 440.063 711.828 447.272 711.828 447.272C711.828 447.272 704.625 441.415 699.191 436.298C699.002 445.738 698 457.889 698 457.889C698 457.889 697 445.758 696.809 436.322C691.379 441.433 684.198 447.272 684.198 447.272C684.198 447.272 690.059 440.064 695.177 434.63C686.72 434.426 676 433.444 676 433.444C676 433.444 686.698 432.464 695.152 432.259C690.034 426.825 684.172 419.616 684.172 419.616C684.172 419.616 691.375 425.474 696.809 430.59C696.998 421.151 698 409 698 409Z" fill="url(#paint3_radial_812_12671)"/>
<g filter="url(#filter2_f_812_12671)">
<path d="M65 0.999847C65 0.999847 66.3684 17.5973 66.6254 30.4736C74.0382 23.4887 83.8909 15.4771 83.8909 15.4771C83.8909 15.4771 75.8969 25.3081 68.9174 32.7182C80.4399 32.9993 95 34.3332 95 34.3332C95 34.3332 80.4112 35.6697 68.8833 35.949C75.8627 43.359 83.8562 53.1894 83.8562 53.1894C83.8562 53.1894 74.0336 45.2023 66.6247 38.2249C66.3662 51.0967 65 67.6665 65 67.6665C65 67.6665 63.6361 51.1243 63.3759 38.257C55.971 45.2268 46.1785 53.1895 46.1785 53.1895C46.1785 53.1895 54.1714 43.3597 61.1507 35.9499C49.6175 35.6723 35 34.3332 35 34.3332C35 34.3332 49.5888 32.9967 61.1166 32.7173C54.1372 25.3074 46.1438 15.4771 46.1438 15.4771C46.1438 15.4771 55.9664 23.4641 63.3753 30.4415C63.6338 17.5697 65 0.999847 65 0.999847Z" fill="url(#paint4_radial_812_12671)"/>
</g>
<path d="M65 0.999847C65 0.999847 66.3684 17.5973 66.6254 30.4736C74.0382 23.4887 83.8909 15.4771 83.8909 15.4771C83.8909 15.4771 75.8969 25.3081 68.9174 32.7182C80.4399 32.9993 95 34.3332 95 34.3332C95 34.3332 80.4112 35.6697 68.8833 35.949C75.8627 43.359 83.8562 53.1894 83.8562 53.1894C83.8562 53.1894 74.0336 45.2023 66.6247 38.2249C66.3662 51.0967 65 67.6665 65 67.6665C65 67.6665 63.6361 51.1243 63.3759 38.257C55.971 45.2268 46.1785 53.1895 46.1785 53.1895C46.1785 53.1895 54.1714 43.3597 61.1507 35.9499C49.6175 35.6723 35 34.3332 35 34.3332C35 34.3332 49.5888 32.9967 61.1166 32.7173C54.1372 25.3074 46.1438 15.4771 46.1438 15.4771C46.1438 15.4771 55.9664 23.4641 63.3753 30.4415C63.6338 17.5697 65 0.999847 65 0.999847Z" fill="url(#paint5_radial_812_12671)"/>
<g filter="url(#filter3_f_812_12671)">
<path d="M629 331C629 331 630.368 347.597 630.625 360.474C638.038 353.489 647.891 345.477 647.891 345.477C647.891 345.477 639.897 355.308 632.917 362.718C644.44 362.999 659 364.333 659 364.333C659 364.333 644.411 365.67 632.883 365.949C639.863 373.359 647.856 383.189 647.856 383.189C647.856 383.189 638.034 375.202 630.625 368.225C630.366 381.097 629 397.667 629 397.667C629 397.667 627.636 381.124 627.376 368.257C619.971 375.227 610.179 383.189 610.179 383.189C610.179 383.189 618.171 373.36 625.151 365.95C613.618 365.672 599 364.333 599 364.333C599 364.333 613.589 362.997 625.117 362.717C618.137 355.307 610.144 345.477 610.144 345.477C610.144 345.477 619.966 353.464 627.375 360.442C627.634 347.57 629 331 629 331Z" fill="url(#paint6_radial_812_12671)"/>
</g>
<path d="M629 331C629 331 630.368 347.597 630.625 360.474C638.038 353.489 647.891 345.477 647.891 345.477C647.891 345.477 639.897 355.308 632.917 362.718C644.44 362.999 659 364.333 659 364.333C659 364.333 644.411 365.67 632.883 365.949C639.863 373.359 647.856 383.189 647.856 383.189C647.856 383.189 638.034 375.202 630.625 368.225C630.366 381.097 629 397.667 629 397.667C629 397.667 627.636 381.124 627.376 368.257C619.971 375.227 610.179 383.189 610.179 383.189C610.179 383.189 618.171 373.36 625.151 365.95C613.618 365.672 599 364.333 599 364.333C599 364.333 613.589 362.997 625.117 362.717C618.137 355.307 610.144 345.477 610.144 345.477C610.144 345.477 619.966 353.464 627.375 360.442C627.634 347.57 629 331 629 331Z" fill="url(#paint7_radial_812_12671)"/>
<defs>
<filter id="filter0_f_812_12671" x="0" y="125" width="46" height="50.8889" filterUnits="userSpaceOnUse" color-interpolation-filters="sRGB">
<feFlood flood-opacity="0" result="BackgroundImageFix"/>
<feBlend mode="normal" in="SourceGraphic" in2="BackgroundImageFix" result="shape"/>
<feGaussianBlur stdDeviation="0.5" result="effect1_foregroundBlur_812_12671"/>
</filter>
<filter id="filter1_f_812_12671" x="675" y="408" width="46" height="50.8889" filterUnits="userSpaceOnUse" color-interpolation-filters="sRGB">
<feFlood flood-opacity="0" result="BackgroundImageFix"/>
<feBlend mode="normal" in="SourceGraphic" in2="BackgroundImageFix" result="shape"/>
<feGaussianBlur stdDeviation="0.5" result="effect1_foregroundBlur_812_12671"/>
</filter>
<filter id="filter2_f_812_12671" x="34" y="-0.000152588" width="62" height="68.6667" filterUnits="userSpaceOnUse" color-interpolation-filters="sRGB">
<feFlood flood-opacity="0" result="BackgroundImageFix"/>
<feBlend mode="normal" in="SourceGraphic" in2="BackgroundImageFix" result="shape"/>
<feGaussianBlur stdDeviation="0.5" result="effect1_foregroundBlur_812_12671"/>
</filter>
<filter id="filter3_f_812_12671" x="598" y="330" width="62" height="68.6667" filterUnits="userSpaceOnUse" color-interpolation-filters="sRGB">
<feFlood flood-opacity="0" result="BackgroundImageFix"/>
<feBlend mode="normal" in="SourceGraphic" in2="BackgroundImageFix" result="shape"/>
<feGaussianBlur stdDeviation="0.5" result="effect1_foregroundBlur_812_12671"/>
</filter>
<radialGradient id="paint0_radial_812_12671" cx="0" cy="0" r="1" gradientUnits="userSpaceOnUse" gradientTransform="translate(23 149.528) rotate(57.4396) scale(30.0906 23.2798)">
<stop stop-color="#864285"/>
<stop offset="1" stop-color="#3A3A3A" stop-opacity="0.73"/>
</radialGradient>
<radialGradient id="paint1_radial_812_12671" cx="0" cy="0" r="1" gradientUnits="userSpaceOnUse" gradientTransform="translate(23 149.528) rotate(57.4396) scale(30.0906 23.2798)">
<stop stop-color="#864285"/>
<stop offset="1" stop-color="#3A3A3A" stop-opacity="0.73"/>
</radialGradient>
<radialGradient id="paint2_radial_812_12671" cx="0" cy="0" r="1" gradientUnits="userSpaceOnUse" gradientTransform="translate(698 432.528) rotate(57.4396) scale(30.0906 23.2798)">
<stop stop-color="#864285"/>
<stop offset="1" stop-color="#3A3A3A" stop-opacity="0.73"/>
</radialGradient>
<radialGradient id="paint3_radial_812_12671" cx="0" cy="0" r="1" gradientUnits="userSpaceOnUse" gradientTransform="translate(698 432.528) rotate(57.4396) scale(30.0906 23.2798)">
<stop stop-color="#864285"/>
<stop offset="1" stop-color="#3A3A3A" stop-opacity="0.73"/>
</radialGradient>
<radialGradient id="paint4_radial_812_12671" cx="0" cy="0" r="1" gradientUnits="userSpaceOnUse" gradientTransform="translate(65 33.0832) rotate(57.4396) scale(41.0327 31.7452)">
<stop stop-color="#864285"/>
<stop offset="1" stop-color="#3A3A3A" stop-opacity="0.73"/>
</radialGradient>
<radialGradient id="paint5_radial_812_12671" cx="0" cy="0" r="1" gradientUnits="userSpaceOnUse" gradientTransform="translate(65 33.0832) rotate(57.4396) scale(41.0327 31.7452)">
<stop stop-color="#864285"/>
<stop offset="1" stop-color="#3A3A3A" stop-opacity="0.73"/>
</radialGradient>
<radialGradient id="paint6_radial_812_12671" cx="0" cy="0" r="1" gradientUnits="userSpaceOnUse" gradientTransform="translate(629 363.083) rotate(57.4396) scale(41.0327 31.7452)">
<stop stop-color="#864285"/>
<stop offset="1" stop-color="#3A3A3A" stop-opacity="0.73"/>
</radialGradient>
<radialGradient id="paint7_radial_812_12671" cx="0" cy="0" r="1" gradientUnits="userSpaceOnUse" gradientTransform="translate(629 363.083) rotate(57.4396) scale(41.0327 31.7452)">
<stop stop-color="#864285"/>
<stop offset="1" stop-color="#3A3A3A" stop-opacity="0.73"/>
</radialGradient>
</defs>
</svg>
